%TF.GenerationSoftware,KiCad,Pcbnew,8.0.5*%
%TF.CreationDate,2026-02-01T00:57:27+07:00*%
%TF.ProjectId,18650_Charger,31383635-305f-4436-9861-726765722e6b,rev?*%
%TF.SameCoordinates,Original*%
%TF.FileFunction,Copper,L1,Top*%
%TF.FilePolarity,Positive*%
%FSLAX46Y46*%
G04 Gerber Fmt 4.6, Leading zero omitted, Abs format (unit mm)*
G04 Created by KiCad (PCBNEW 8.0.5) date 2026-02-01 00:57:27*
%MOMM*%
%LPD*%
G01*
G04 APERTURE LIST*
G04 Aperture macros list*
%AMRoundRect*
0 Rectangle with rounded corners*
0 $1 Rounding radius*
0 $2 $3 $4 $5 $6 $7 $8 $9 X,Y pos of 4 corners*
0 Add a 4 corners polygon primitive as box body*
4,1,4,$2,$3,$4,$5,$6,$7,$8,$9,$2,$3,0*
0 Add four circle primitives for the rounded corners*
1,1,$1+$1,$2,$3*
1,1,$1+$1,$4,$5*
1,1,$1+$1,$6,$7*
1,1,$1+$1,$8,$9*
0 Add four rect primitives between the rounded corners*
20,1,$1+$1,$2,$3,$4,$5,0*
20,1,$1+$1,$4,$5,$6,$7,0*
20,1,$1+$1,$6,$7,$8,$9,0*
20,1,$1+$1,$8,$9,$2,$3,0*%
G04 Aperture macros list end*
%TA.AperFunction,ComponentPad*%
%ADD10R,1.600000X1.600000*%
%TD*%
%TA.AperFunction,ComponentPad*%
%ADD11C,1.600000*%
%TD*%
%TA.AperFunction,ComponentPad*%
%ADD12R,0.850000X0.850000*%
%TD*%
%TA.AperFunction,SMDPad,CuDef*%
%ADD13RoundRect,0.250000X-0.450000X0.262500X-0.450000X-0.262500X0.450000X-0.262500X0.450000X0.262500X0*%
%TD*%
%TA.AperFunction,SMDPad,CuDef*%
%ADD14RoundRect,0.243750X0.456250X-0.243750X0.456250X0.243750X-0.456250X0.243750X-0.456250X-0.243750X0*%
%TD*%
%TA.AperFunction,SMDPad,CuDef*%
%ADD15RoundRect,0.250000X0.450000X-0.262500X0.450000X0.262500X-0.450000X0.262500X-0.450000X-0.262500X0*%
%TD*%
%TA.AperFunction,SMDPad,CuDef*%
%ADD16RoundRect,0.250000X-0.475000X0.250000X-0.475000X-0.250000X0.475000X-0.250000X0.475000X0.250000X0*%
%TD*%
%TA.AperFunction,SMDPad,CuDef*%
%ADD17R,2.413000X3.302000*%
%TD*%
%TA.AperFunction,SMDPad,CuDef*%
%ADD18RoundRect,0.075000X-0.910000X-0.225000X0.910000X-0.225000X0.910000X0.225000X-0.910000X0.225000X0*%
%TD*%
%TA.AperFunction,ViaPad*%
%ADD19C,0.600000*%
%TD*%
%TA.AperFunction,Conductor*%
%ADD20C,0.500000*%
%TD*%
%TA.AperFunction,Conductor*%
%ADD21C,0.200000*%
%TD*%
G04 APERTURE END LIST*
D10*
%TO.P,C2,1*%
%TO.N,Net-(J3-Pin_1)*%
X135000000Y-67544888D03*
D11*
%TO.P,C2,2*%
%TO.N,0*%
X135000000Y-69544888D03*
%TD*%
D12*
%TO.P,J4,1,Pin_1*%
%TO.N,0*%
X125500000Y-69500000D03*
%TD*%
D13*
%TO.P,R3,1*%
%TO.N,Net-(D2-K)*%
X134000000Y-62175000D03*
%TO.P,R3,2*%
%TO.N,Net-(U1-~{CHRG})*%
X134000000Y-64000000D03*
%TD*%
D14*
%TO.P,D1,1,K*%
%TO.N,Net-(D1-K)*%
X136500000Y-60462500D03*
%TO.P,D1,2,A*%
%TO.N,Net-(D1-A)*%
X136500000Y-58587500D03*
%TD*%
%TO.P,D2,1,K*%
%TO.N,Net-(D2-K)*%
X134000000Y-60500000D03*
%TO.P,D2,2,A*%
%TO.N,Net-(D1-A)*%
X134000000Y-58625000D03*
%TD*%
D15*
%TO.P,R1,1*%
%TO.N,Net-(U1-PROG)*%
X125000000Y-60500000D03*
%TO.P,R1,2*%
%TO.N,0*%
X125000000Y-58675000D03*
%TD*%
D12*
%TO.P,J2,1,Pin_1*%
%TO.N,0*%
X127500000Y-59000000D03*
%TD*%
%TO.P,J1,1,Pin_1*%
%TO.N,Net-(D1-A)*%
X130500000Y-59000000D03*
%TD*%
D16*
%TO.P,C1,1*%
%TO.N,Net-(J3-Pin_1)*%
X130500000Y-68550000D03*
%TO.P,C1,2*%
%TO.N,0*%
X130500000Y-70450000D03*
%TD*%
D17*
%TO.P,U1,9,EP*%
%TO.N,unconnected-(U1-EP-Pad9)*%
X128000000Y-64500000D03*
D18*
%TO.P,U1,8,CE*%
%TO.N,Net-(D1-A)*%
X130475000Y-62595000D03*
%TO.P,U1,7,~{CHRG}*%
%TO.N,Net-(U1-~{CHRG})*%
X130475000Y-63865000D03*
%TO.P,U1,6,~{STDBY}*%
%TO.N,Net-(U1-~{STDBY})*%
X130475000Y-65135000D03*
%TO.P,U1,5,BAT*%
%TO.N,Net-(J3-Pin_1)*%
X130475000Y-66405000D03*
%TO.P,U1,4,VCC*%
%TO.N,Net-(D1-A)*%
X125525000Y-66405000D03*
%TO.P,U1,3,GND*%
%TO.N,0*%
X125525000Y-65135000D03*
%TO.P,U1,2,PROG*%
%TO.N,Net-(U1-PROG)*%
X125525000Y-63865000D03*
%TO.P,U1,1,TEMP*%
%TO.N,unconnected-(U1-TEMP-Pad1)*%
X125525000Y-62595000D03*
%TD*%
D13*
%TO.P,R2,1*%
%TO.N,Net-(D1-K)*%
X136500000Y-62175000D03*
%TO.P,R2,2*%
%TO.N,Net-(U1-~{STDBY})*%
X136500000Y-64000000D03*
%TD*%
D12*
%TO.P,J3,1,Pin_1*%
%TO.N,Net-(J3-Pin_1)*%
X128000000Y-69500000D03*
%TD*%
D19*
%TO.N,0*%
X123702501Y-64297499D03*
%TO.N,Net-(D1-A)*%
X122000000Y-63000000D03*
%TD*%
D20*
%TO.N,0*%
X122952500Y-63547499D02*
X122800000Y-63394999D01*
X123702501Y-64297499D02*
X123702500Y-64297499D01*
X125000000Y-58675000D02*
X127175000Y-58675000D01*
D21*
X125000000Y-58675000D02*
X125325000Y-58675000D01*
D20*
X123702500Y-64297499D02*
X122952501Y-63547500D01*
X126450000Y-70450000D02*
X125500000Y-69500000D01*
X130500000Y-70450000D02*
X134094888Y-70450000D01*
X122952501Y-63547500D02*
X122952500Y-63547500D01*
X127175000Y-58675000D02*
X127500000Y-59000000D01*
X123702501Y-64297500D02*
X123702501Y-64297499D01*
X124540001Y-65135000D02*
X123702501Y-64297500D01*
X130500000Y-70450000D02*
X126450000Y-70450000D01*
X125525000Y-65135000D02*
X124540001Y-65135000D01*
X122800000Y-60875000D02*
X125000000Y-58675000D01*
X134094888Y-70450000D02*
X135000000Y-69544888D01*
X122952500Y-63547500D02*
X122952500Y-63547499D01*
X122800000Y-63394999D02*
X122800000Y-60875000D01*
%TO.N,Net-(D1-A)*%
X134000000Y-58625000D02*
X130875000Y-58625000D01*
X122000000Y-63000000D02*
X122000000Y-63864999D01*
X130475000Y-59025000D02*
X130500000Y-59000000D01*
X122000000Y-63864999D02*
X124540001Y-66405000D01*
X130875000Y-58625000D02*
X130500000Y-59000000D01*
X124540001Y-66405000D02*
X125525000Y-66405000D01*
X130475000Y-62595000D02*
X130475000Y-59025000D01*
%TO.N,Net-(D1-K)*%
X136500000Y-60462500D02*
X136500000Y-62175000D01*
%TO.N,Net-(D2-K)*%
X134000000Y-60500000D02*
X134000000Y-62175000D01*
%TO.N,Net-(U1-PROG)*%
X125525000Y-63865000D02*
X124540001Y-63865000D01*
X124540001Y-63865000D02*
X123500000Y-62824999D01*
X123500000Y-62000000D02*
X125000000Y-60500000D01*
X123500000Y-62824999D02*
X123500000Y-62000000D01*
%TO.N,Net-(U1-~{STDBY})*%
X135365000Y-65135000D02*
X136500000Y-64000000D01*
X130475000Y-65135000D02*
X135365000Y-65135000D01*
%TO.N,Net-(U1-~{CHRG})*%
X132500000Y-64000000D02*
X134000000Y-64000000D01*
X130475000Y-63865000D02*
X132365000Y-63865000D01*
X132365000Y-63865000D02*
X132500000Y-64000000D01*
%TO.N,Net-(J3-Pin_1)*%
X133044888Y-67544888D02*
X135000000Y-67544888D01*
X128950000Y-68550000D02*
X128000000Y-69500000D01*
X130500000Y-68550000D02*
X131950000Y-68550000D01*
X130500000Y-68550000D02*
X128950000Y-68550000D01*
X130475000Y-66405000D02*
X130475000Y-68525000D01*
X131950000Y-68550000D02*
X133000000Y-67500000D01*
X133000000Y-67500000D02*
X133044888Y-67544888D01*
X130475000Y-68525000D02*
X130500000Y-68550000D01*
%TD*%
M02*
